<svg width="44" height="44" viewBox="0 0 44 44" fill="none" xmlns="http://www.w3.org/2000/svg">
<rect x="0.5" y="0.5" width="43" height="43" rx="21.5" fill="white"/>
<rect x="0.5" y="0.5" width="43" height="43" rx="21.5" stroke="#E5E5E5"/>
<path d="M24.4 10H14.8C13.48 10 12.412 11.08 12.412 12.4L12.4 31.6C12.4 32.92 13.468 34 14.788 34H29.2C30.52 34 31.6 32.92 31.6 31.6V17.2L24.4 10ZM25.6 22H20.8V23.2H24.4C25.06 23.2 25.6 23.74 25.6 24.4V28C25.6 28.66 25.06 29.2 24.4 29.2H23.2V30.4H20.8V29.2H18.4V26.8H23.2V25.6H19.6C18.94 25.6 18.4 25.06 18.4 24.4V20.8C18.4 20.14 18.94 19.6 19.6 19.6H20.8V18.4H23.2V19.6H25.6V22ZM23.2 17.2V11.8L28.6 17.2H23.2Z" fill="#1FA856"/>
</svg>
